{"title":"A.Most.Wanted.Man.2014.BRRiP.XViD.AC3.5.1.ReLeNTLesS","uid":11269497,"size":1684612779,"categoryP":"video","categoryS":"movies","magnet":"?xt=urn:btih:b668af9c0976faa2757699f0653de357e8c81bc6&amp;dn=A.Most.Wanted.Man.2014.BRRiP.XViD.AC3.5.1.ReLeNTLesS&amp;tr=udp%3A%2F%2Ftracker.openbittorrent.com%3A80&amp;tr=udp%3A%2F%2Fopen.demonii.com%3A1337&amp;tr=udp%3A%2F%2Ftracker.coppersurfer.tk%3A6969&amp;tr=udp%3A%2F%2Fexodus.desync.com%3A6969","seeders":1,"leechers":0,"uploader":"TvTeam","files":4,"time":1414064361,"description":" &lt;a href=&quot;http://www.torrenting.com&quot; rel=&quot;nofollow&quot; target=&quot;_NEW&quot;&gt;http://www.torrenting.com&lt;/a&gt;\n\nSign up is OPEN - for time being. Come and have fun.\n\n\n....P0STER\n[IMG]http://lookpic.com/O/i2/926/XOrWbLXR.png[/IMG]\n\niMDB: http://www.imdb.com/title/tt1972571/\n\nGeneral\nComplete name                            : A.Most.Wanted.Man.2014.BRRiP.XViD.AC3.5.1.ReLeNTLesS.avi\nFormat                                   : AVI\nFormat/Info                              : Audio Video Interleave\nFile size                                : 1.55 GiB\nDuration                                 : 2h 2mn\nOverall bit rate                         : 1 808 Kbps\n\nVideo\nID                                       : 0\nFormat                                   : MPEG-4 Visual\nFormat profile                           : Advanced Simple@L5\nFormat settings, BVOP                    : 1\nFormat settings, QPel                    : No\nFormat settings, GMC                     : No warppoints\nFormat settings, Matrix                  : Default (H.263)\nMuxing mode                              : Packed bitstream\nCodec ID                                 : XVID\nCodec ID/Hint                            : XviD\nDuration                                 : 2h 2mn\nBit rate                                 : 1 480 Kbps\nWidth                                    : 720 pixels\nHeight                                   : 304 pixels\nDisplay aspect ratio                     : 2.35:1\nFrame rate                               : 23.976 fps\nColor space                              : YUV\nChroma subsampling                       : 4:2:0\nBit depth                                : 8 bits\nScan type                                : Progressive\nCompression mode                         : Lossy\nBits/(Pixel*Frame)                       : 0.282\nStream size                              : 1.27 GiB (82%)\nWriting library                          : XviD 1.2.1 (UTC 2008-12-04)\n\nAudio\nID                                       : 1\nFormat                                   : AC-3\nFormat/Info                              : Audio Coding 3\nMode extension                           : CM (complete main)\nFormat settings, Endianness              : Big\nCodec ID                                 : 2000\nDuration                                 : 2h 2mn\nBit rate mode                            : Constant\nBit rate                                 : 320 Kbps\nChannel(s)                               : 6 channels\nChannel positions                        : Front: L C R, Side: L R, LFE\nSampling rate                            : 44.1 KHz\nBit depth                                : 16 bits\nCompression mode                         : Lossy\nStream size                              : 280 MiB (18%)\nAlignment                                : Aligned on interleaves\nInterleave, duration                     : 70 ms (1.67 video frames)\nInterleave, preload duration             : 208 ms\nTitle                                    : A.Most.Wanted.Man.2014.ReLeNTLesS.audio.5.1.English\nSource                                   : SPARKS\nSubtitles                                : Hardcoded when needed\n\nPL0T\nA Chechen Muslim illegally immigrates to Hamburg, where he gets caught in the international war on terror.\n\nCAST\nDirector: Anton Corbijn\nWriters: Andrew Bovell (screenplay), John le Carr (novel)\nStars: Philip Seymour Hoffman, Rachel McAdams, Daniel Brhl \n\nSCREENS\n[IMG]http://lookpic.com/O/i2/1774/Y76ACH59.png[/IMG]\n[IMG]http://lookpic.com/O/i2/1104/J6kRr8OG.png[/IMG]\n[IMG]http://lookpic.com/O/i2/1129/HQK3xGn1.png[/IMG]\n[IMG]http://lookpic.com/O/i2/265/RadjYSBJ.png[/IMG]\n[IMG]http://lookpic.com/O/i2/663/msqHlPRy.png[/IMG]\n[IMG]http://lookpic.com/O/i2/1970/hKzDOvNL.png[/IMG]\n\nTRAiLER\n\nGREETZ\n\nM0RPH, M00SE, MiLLENiUM, Anonymous, TuX, \n\nACAB, KingStoner, FooKas, 4PlayHD, \n\nGodFather, Cld.... \n\nKeep up the good work guyz","torrent":{"xt":"urn:btih:b668af9c0976faa2757699f0653de357e8c81bc6","amp;dn":"A.Most.Wanted.Man.2014.BRRiP.XViD.AC3.5.1.ReLeNTLesS","amp;tr":["udp%3A%2F%2Ftracker.openbittorrent.com%3A80","udp%3A%2F%2Fopen.demonii.com%3A1337","udp%3A%2F%2Ftracker.coppersurfer.tk%3A6969","udp%3A%2F%2Fexodus.desync.com%3A6969"],"infoHash":"b668af9c0976faa2757699f0653de357e8c81bc6","infoHashBuffer":{"type":"Buffer","data":[182,104,175,156,9,118,250,162,117,118,153,240,101,61,227,87,232,200,27,198]},"announce":[],"urlList":[]}}